<?xml version="1.0" standalone="no"?>
<!DOCTYPE svg PUBLIC "-//W3C//DTD SVG 20010904//EN"
 "http://www.w3.org/TR/2001/REC-SVG-20010904/DTD/svg10.dtd">
<svg version="1.0" xmlns="http://www.w3.org/2000/svg"
 width="527.000000pt" height="371.000000pt" viewBox="0 0 527.000000 371.000000"
 preserveAspectRatio="xMidYMid meet">
<metadata>
Created by potrace 1.16, written by Peter Selinger 2001-2019
</metadata>
<g transform="translate(0.000000,371.000000) scale(0.100000,-0.100000)"
fill="#000000" stroke="none">
<path d="M2995 3465 c-88 -20 -137 -39 -202 -81 -32 -20 -78 -45 -103 -56 -90
-39 -170 -142 -195 -254 -8 -38 -22 -94 -31 -124 -11 -37 -17 -96 -18 -185 -1
-147 9 -190 75 -312 61 -113 52 -171 -31 -188 -46 -10 -75 -25 -201 -106 -158
-101 -660 -310 -697 -290 -23 12 -68 1 -237 -58 -172 -61 -249 -102 -343 -181
-90 -78 -141 -146 -171 -230 -10 -30 -30 -80 -44 -110 -14 -31 -42 -108 -62
-172 -21 -65 -42 -115 -47 -112 -4 3 -21 34 -37 68 -45 99 -106 131 -164 86
-15 -12 -52 -71 -83 -133 -30 -62 -72 -132 -92 -155 -79 -94 -82 -101 -82
-180 0 -81 11 -109 71 -186 24 -30 39 -59 39 -77 0 -26 22 -59 39 -59 5 0 19
9 33 20 l25 19 24 -51 c48 -104 73 -133 155 -182 l79 -47 85 3 c74 3 95 8 155
37 44 22 88 36 119 38 59 3 91 22 111 66 8 17 26 52 39 76 14 24 28 64 32 88
11 76 31 72 181 -38 112 -81 195 -125 307 -163 96 -32 166 -33 242 -5 l58 22
15 -21 c9 -11 27 -39 41 -62 43 -72 174 -130 294 -130 50 0 67 -4 81 -20 13
-14 31 -20 62 -20 39 0 43 2 43 25 0 19 7 26 38 34 57 16 101 13 138 -10 19
-11 44 -19 56 -17 20 3 23 9 22 41 -1 20 1 37 3 37 3 0 22 -13 43 -30 44 -35
47 -35 88 -14 39 19 42 48 11 111 -14 29 -35 51 -62 67 -49 28 -173 54 -303
63 l-91 6 -42 86 c-32 68 -44 108 -56 190 -8 58 -13 105 -12 106 1 1 31 12 67
24 116 41 169 74 343 218 48 40 116 87 150 104 34 17 128 78 208 135 81 57
173 116 205 132 57 26 64 27 229 27 152 0 180 -3 270 -27 148 -40 193 -44 256
-22 36 12 88 19 159 20 94 2 228 25 403 69 17 5 27 3 27 -4 0 -14 46 -37 93
-45 28 -5 43 -15 55 -37 9 -16 22 -29 28 -29 35 0 53 78 31 132 l-15 36 47 65
c26 36 71 91 99 123 29 32 52 61 52 66 0 4 13 29 29 56 39 67 47 92 27 92 -19
0 -20 4 -4 30 10 15 10 22 1 31 -23 23 -99 -9 -169 -72 -35 -32 -76 -62 -90
-65 -46 -12 -206 3 -367 35 -186 36 -270 39 -359 11 -85 -27 -222 -34 -408
-21 -145 10 -300 38 -225 40 53 2 103 21 133 51 20 20 41 30 68 32 33 2 40 7
43 28 1 14 -5 39 -14 57 -28 52 -13 69 83 93 33 9 48 19 60 43 9 17 34 47 55
67 20 19 37 44 37 55 0 11 -14 40 -31 65 -25 36 -30 52 -25 80 3 19 15 43 27
53 18 14 19 20 9 32 -10 12 -10 21 -1 41 6 14 11 39 11 57 0 18 9 66 21 107
28 103 34 185 16 242 -18 57 -118 218 -164 264 -75 75 -206 164 -270 184 -35
11 -99 35 -141 53 -42 19 -107 39 -143 46 -86 15 -239 13 -314 -4z"/>
</g>
</svg>
